<?xml version="1.0" encoding="utf-8"?>
<!-- Generator: Adobe Illustrator 19.2.0, SVG Export Plug-In . SVG Version: 6.00 Build 0)  -->
<svg version="1.1" id="Слой_1" xmlns="http://www.w3.org/2000/svg" xmlns:xlink="http://www.w3.org/1999/xlink" x="0px" y="0px"
	 viewBox="0 0 233.8 107" style="enable-background:new 0 0 233.8 107;" xml:space="preserve">
<style type="text/css">
	.st0{fill:#398CCB;}
	.st1{fill:#D45E9F;}
</style>
<g>
	<g>
		<path class="st0" d="M76.7,15.9c0,0,0-14.6,4.8-14.6c3.4,0,8.1,7.3,7.4,22.6c0,8,3.4,7.3,7,8.8c3.6,1.4,7,1.4,9.8,8.7
			c3.1,8.2,5.8,6.7,5.8,12.4c0,8.1-12.2,8.6-12,12.2s-1.9,18.2-15.1,23.2c-5,1.7-3.8,9.1-1.7,9.1c2.2,0,8.6,1.7,9.8,7.7
			c0.2,1.9-17.2,0.5-19.6,0s-9.1-9.6-9.1-11s-8.9,2.6-10.1,4.5c-1.2,1.9,3.8,0,3.1,4.5S8,105,5.6,103.8s-8.9-12.4-3.4-13.9
			c0,0,0-40.1,41.1-45.7c27.4-2.9,22.2,6,29.6-3.9c3.6-7.3-6.2-10.5-8.7-21C61,5.8,63.1,0.1,65,0.1C67,0.1,72.9,6.3,76.7,15.9z"/>
	</g>
</g>
<g>
	<g>
		<path class="st1" d="M157.5,15.9c0,0,0-14.6-4.8-14.6c-3.4,0-8.1,7.3-7.4,22.6c0,8-3.4,7.3-7,8.8c-3.6,1.4-7,1.4-9.8,8.7
			c-3.1,8.2-5.8,6.7-5.8,12.4c0,8.1,12.2,8.6,12,12.2s1.9,18.2,15.1,23.2c5,1.7,3.8,9.1,1.7,9.1c-2.2,0-8.3,0.4-9.5,6.4
			c-0.2,1.9,16.8,1.8,19.2,1.3c2.4-0.5,9.1-9.6,9.1-11s8.9,2.6,10.1,4.5s-3.8,0-3.1,4.5c0.7,4.5,47.6,1.8,50,0.6
			c2.4-1.2,10.1-13.3,4.6-14.8c0,0,0-40.1-41.1-45.7c-27.4-2.9-22.2,6-29.6-3.9c-3.6-7.3,6.2-10.5,8.7-21C173.1,5.7,171,0,169.1,0
			C167.2,0.1,161.3,6.3,157.5,15.9z"/>
	</g>
</g>
</svg>
